<svg
              width="164"
              height="70"
              viewBox="0 0 164 70"
              fill="none"
              xmlns="http://www.w3.org/2000/svg"
            >
              <rect
                x="0.5"
                y="0.5"
                width="163"
                height="69"
                rx="7.5"
                fill="white"
              />
              <rect
                x="0.5"
                y="0.5"
                width="163"
                height="69"
                rx="7.5"
                stroke="#756E66"
              />
              <g clip-path="url(#clip0_420_5420)">
                <path
                  d="M36.0869 34.4853L22.2917 21.3995L39.8437 30.9316L36.0869 34.4853ZM18.6901 20.6306C17.8773 21.0332 17.3333 21.7658 17.3333 22.7193V48.8123C17.3333 49.7658 17.8773 50.4983 18.6901 50.9009L34.7333 35.7627L18.6901 20.6306ZM45.2709 33.9707L41.5893 31.9547L37.4821 35.7688L41.5893 39.5828L45.3461 37.5668C46.4709 36.7208 46.4709 34.8168 45.2709 33.9707ZM22.2917 50.1381L39.8437 40.606L36.0869 37.0523L22.2917 50.1381Z"
                  fill="#121212"
                />
              </g>
              <path
                d="M63.612 26.084C63.46 26.084 63.34 26.04 63.252 25.952C63.164 25.856 63.12 25.728 63.12 25.568V18.392H60.42C60.276 18.392 60.164 18.352 60.084 18.272C60.004 18.192 59.964 18.088 59.964 17.96C59.964 17.824 60.004 17.72 60.084 17.648C60.164 17.576 60.276 17.54 60.42 17.54H66.816C66.96 17.54 67.072 17.576 67.152 17.648C67.232 17.72 67.272 17.824 67.272 17.96C67.272 18.096 67.232 18.204 67.152 18.284C67.072 18.356 66.96 18.392 66.816 18.392H64.116V25.568C64.116 25.728 64.072 25.856 63.984 25.952C63.904 26.04 63.78 26.084 63.612 26.084ZM69.8447 26.108C69.2287 26.108 68.6967 25.988 68.2487 25.748C67.8087 25.5 67.4647 25.152 67.2167 24.704C66.9767 24.256 66.8567 23.72 66.8567 23.096C66.8567 22.488 66.9767 21.96 67.2167 21.512C67.4567 21.056 67.7847 20.7 68.2007 20.444C68.6247 20.188 69.1127 20.06 69.6647 20.06C70.0567 20.06 70.4087 20.128 70.7207 20.264C71.0327 20.392 71.2967 20.58 71.5127 20.828C71.7367 21.076 71.9047 21.376 72.0167 21.728C72.1367 22.08 72.1967 22.476 72.1967 22.916C72.1967 23.044 72.1607 23.14 72.0887 23.204C72.0167 23.26 71.9127 23.288 71.7767 23.288H67.6007V22.652H71.5487L71.3567 22.808C71.3567 22.376 71.2927 22.012 71.1647 21.716C71.0367 21.412 70.8487 21.18 70.6007 21.02C70.3607 20.86 70.0567 20.78 69.6887 20.78C69.2807 20.78 68.9327 20.876 68.6447 21.068C68.3647 21.252 68.1527 21.512 68.0087 21.848C67.8647 22.176 67.7927 22.56 67.7927 23V23.072C67.7927 23.808 67.9687 24.368 68.3207 24.752C68.6807 25.136 69.1887 25.328 69.8447 25.328C70.1167 25.328 70.3847 25.292 70.6487 25.22C70.9207 25.148 71.1847 25.028 71.4407 24.86C71.5527 24.788 71.6527 24.756 71.7407 24.764C71.8367 24.764 71.9127 24.792 71.9687 24.848C72.0247 24.896 72.0607 24.96 72.0767 25.04C72.1007 25.112 72.0927 25.192 72.0527 25.28C72.0207 25.368 71.9527 25.444 71.8487 25.508C71.5847 25.7 71.2727 25.848 70.9127 25.952C70.5527 26.056 70.1967 26.108 69.8447 26.108ZM70.0607 19.328C70.0047 19.408 69.9367 19.456 69.8567 19.472C69.7767 19.48 69.7007 19.468 69.6287 19.436C69.5567 19.396 69.5047 19.34 69.4727 19.268C69.4407 19.196 69.4487 19.112 69.4967 19.016L70.5047 17.06C70.5607 16.948 70.6327 16.876 70.7207 16.844C70.8087 16.812 70.8967 16.808 70.9847 16.832C71.0807 16.848 71.1607 16.888 71.2247 16.952C71.2887 17.016 71.3247 17.092 71.3327 17.18C71.3487 17.268 71.3247 17.36 71.2607 17.456L70.0607 19.328ZM75.3794 26.108C74.8034 26.108 74.3634 25.932 74.0594 25.58C73.7554 25.228 73.6034 24.724 73.6034 24.068V17.948C73.6034 17.788 73.6434 17.668 73.7234 17.588C73.8034 17.5 73.9234 17.456 74.0834 17.456C74.2354 17.456 74.3554 17.5 74.4434 17.588C74.5314 17.668 74.5754 17.788 74.5754 17.948V23.996C74.5754 24.428 74.6594 24.752 74.8274 24.968C75.0034 25.176 75.2594 25.28 75.5954 25.28C75.6674 25.28 75.7314 25.276 75.7874 25.268C75.8434 25.26 75.8994 25.256 75.9554 25.256C76.0434 25.248 76.1034 25.268 76.1354 25.316C76.1754 25.364 76.1954 25.46 76.1954 25.604C76.1954 25.748 76.1634 25.856 76.0994 25.928C76.0354 26 75.9314 26.048 75.7874 26.072C75.7234 26.08 75.6554 26.088 75.5834 26.096C75.5114 26.104 75.4434 26.108 75.3794 26.108ZM79.7236 26.108C79.1076 26.108 78.5756 25.988 78.1276 25.748C77.6876 25.5 77.3436 25.152 77.0956 24.704C76.8556 24.256 76.7356 23.72 76.7356 23.096C76.7356 22.488 76.8556 21.96 77.0956 21.512C77.3356 21.056 77.6636 20.7 78.0796 20.444C78.5036 20.188 78.9916 20.06 79.5436 20.06C79.9356 20.06 80.2876 20.128 80.5996 20.264C80.9116 20.392 81.1756 20.58 81.3916 20.828C81.6156 21.076 81.7836 21.376 81.8956 21.728C82.0156 22.08 82.0756 22.476 82.0756 22.916C82.0756 23.044 82.0396 23.14 81.9676 23.204C81.8956 23.26 81.7916 23.288 81.6556 23.288H77.4796V22.652H81.4276L81.2356 22.808C81.2356 22.376 81.1716 22.012 81.0436 21.716C80.9156 21.412 80.7276 21.18 80.4796 21.02C80.2396 20.86 79.9356 20.78 79.5676 20.78C79.1596 20.78 78.8116 20.876 78.5236 21.068C78.2436 21.252 78.0316 21.512 77.8876 21.848C77.7436 22.176 77.6716 22.56 77.6716 23V23.072C77.6716 23.808 77.8476 24.368 78.1996 24.752C78.5596 25.136 79.0676 25.328 79.7236 25.328C79.9956 25.328 80.2636 25.292 80.5276 25.22C80.7996 25.148 81.0636 25.028 81.3196 24.86C81.4316 24.788 81.5316 24.756 81.6196 24.764C81.7156 24.764 81.7916 24.792 81.8476 24.848C81.9036 24.896 81.9396 24.96 81.9556 25.04C81.9796 25.112 81.9716 25.192 81.9316 25.28C81.8996 25.368 81.8316 25.444 81.7276 25.508C81.4636 25.7 81.1516 25.848 80.7916 25.952C80.4316 26.056 80.0756 26.108 79.7236 26.108ZM79.9396 19.328C79.8836 19.408 79.8156 19.456 79.7356 19.472C79.6556 19.48 79.5796 19.468 79.5076 19.436C79.4356 19.396 79.3836 19.34 79.3516 19.268C79.3196 19.196 79.3276 19.112 79.3756 19.016L80.3836 17.06C80.4396 16.948 80.5116 16.876 80.5996 16.844C80.6876 16.812 80.7756 16.808 80.8636 16.832C80.9596 16.848 81.0396 16.888 81.1036 16.952C81.1676 17.016 81.2036 17.092 81.2116 17.18C81.2276 17.268 81.2036 17.36 81.1396 17.456L79.9396 19.328ZM85.9543 26.108C85.3703 26.108 84.8663 25.98 84.4423 25.724C84.0183 25.468 83.6903 25.112 83.4583 24.656C83.2343 24.192 83.1223 23.656 83.1223 23.048C83.1223 22.584 83.1863 22.168 83.3143 21.8C83.4423 21.432 83.6303 21.12 83.8783 20.864C84.1263 20.6 84.4223 20.4 84.7663 20.264C85.1183 20.128 85.5143 20.06 85.9543 20.06C86.2423 20.06 86.5423 20.104 86.8543 20.192C87.1663 20.28 87.4503 20.432 87.7063 20.648C87.7863 20.704 87.8383 20.772 87.8623 20.852C87.8863 20.932 87.8863 21.012 87.8623 21.092C87.8383 21.164 87.7983 21.228 87.7423 21.284C87.6863 21.332 87.6143 21.36 87.5263 21.368C87.4463 21.376 87.3623 21.348 87.2743 21.284C87.0663 21.124 86.8543 21.012 86.6383 20.948C86.4223 20.884 86.2143 20.852 86.0143 20.852C85.7023 20.852 85.4303 20.904 85.1983 21.008C84.9663 21.104 84.7703 21.244 84.6103 21.428C84.4503 21.612 84.3263 21.84 84.2383 22.112C84.1583 22.384 84.1183 22.7 84.1183 23.06C84.1183 23.756 84.2823 24.308 84.6103 24.716C84.9383 25.116 85.4063 25.316 86.0143 25.316C86.2143 25.316 86.4183 25.284 86.6263 25.22C86.8423 25.156 87.0583 25.044 87.2743 24.884C87.3623 24.82 87.4463 24.792 87.5263 24.8C87.6063 24.808 87.6743 24.84 87.7303 24.896C87.7863 24.944 87.8223 25.008 87.8383 25.088C87.8623 25.168 87.8623 25.248 87.8383 25.328C87.8143 25.4 87.7623 25.464 87.6823 25.52C87.4263 25.728 87.1463 25.88 86.8423 25.976C86.5383 26.064 86.2423 26.108 85.9543 26.108ZM89.517 26.084C89.357 26.084 89.237 26.04 89.157 25.952C89.077 25.864 89.037 25.74 89.037 25.58V17.948C89.037 17.788 89.077 17.668 89.157 17.588C89.237 17.5 89.357 17.456 89.517 17.456C89.669 17.456 89.789 17.5 89.877 17.588C89.965 17.668 90.009 17.788 90.009 17.948V21.464H89.853C90.021 21 90.293 20.652 90.669 20.42C91.053 20.18 91.493 20.06 91.989 20.06C92.453 20.06 92.837 20.144 93.141 20.312C93.453 20.48 93.685 20.736 93.837 21.08C93.989 21.416 94.065 21.844 94.065 22.364V25.58C94.065 25.74 94.021 25.864 93.933 25.952C93.853 26.04 93.737 26.084 93.585 26.084C93.425 26.084 93.301 26.04 93.213 25.952C93.133 25.864 93.093 25.74 93.093 25.58V22.424C93.093 21.88 92.985 21.484 92.769 21.236C92.561 20.98 92.225 20.852 91.761 20.852C91.225 20.852 90.797 21.02 90.477 21.356C90.165 21.684 90.009 22.124 90.009 22.676V25.58C90.009 25.916 89.845 26.084 89.517 26.084ZM97.6933 26.108C97.2933 26.108 96.9333 26.032 96.6133 25.88C96.3013 25.72 96.0533 25.504 95.8693 25.232C95.6853 24.96 95.5933 24.656 95.5933 24.32C95.5933 23.888 95.7013 23.548 95.9173 23.3C96.1413 23.052 96.5053 22.876 97.0093 22.772C97.5213 22.668 98.2173 22.616 99.0973 22.616H99.6373V23.252H99.1093C98.4613 23.252 97.9493 23.284 97.5733 23.348C97.2053 23.404 96.9453 23.504 96.7933 23.648C96.6493 23.792 96.5773 23.996 96.5773 24.26C96.5773 24.588 96.6893 24.856 96.9133 25.064C97.1453 25.272 97.4573 25.376 97.8493 25.376C98.1693 25.376 98.4493 25.3 98.6893 25.148C98.9373 24.996 99.1293 24.788 99.2653 24.524C99.4093 24.26 99.4813 23.956 99.4813 23.612V22.244C99.4813 21.748 99.3813 21.392 99.1813 21.176C98.9813 20.952 98.6533 20.84 98.1973 20.84C97.9173 20.84 97.6373 20.876 97.3573 20.948C97.0773 21.02 96.7813 21.136 96.4693 21.296C96.3573 21.352 96.2613 21.372 96.1813 21.356C96.1013 21.332 96.0373 21.288 95.9893 21.224C95.9413 21.16 95.9133 21.088 95.9053 21.008C95.8973 20.92 95.9133 20.836 95.9533 20.756C96.0013 20.676 96.0733 20.612 96.1693 20.564C96.5213 20.388 96.8693 20.26 97.2133 20.18C97.5573 20.1 97.8853 20.06 98.1973 20.06C98.7013 20.06 99.1173 20.144 99.4453 20.312C99.7733 20.472 100.017 20.72 100.177 21.056C100.337 21.384 100.417 21.808 100.417 22.328V25.58C100.417 25.74 100.377 25.864 100.297 25.952C100.225 26.04 100.117 26.084 99.9733 26.084C99.8213 26.084 99.7053 26.04 99.6253 25.952C99.5453 25.864 99.5053 25.74 99.5053 25.58V24.644H99.6133C99.5493 24.948 99.4253 25.208 99.2413 25.424C99.0653 25.64 98.8453 25.808 98.5813 25.928C98.3173 26.048 98.0213 26.108 97.6933 26.108ZM102.713 26.084C102.553 26.084 102.429 26.04 102.341 25.952C102.261 25.864 102.221 25.74 102.221 25.58V20.576C102.221 20.416 102.261 20.296 102.341 20.216C102.421 20.128 102.537 20.084 102.689 20.084C102.841 20.084 102.957 20.128 103.037 20.216C103.125 20.296 103.169 20.416 103.169 20.576V21.548H103.049C103.177 21.076 103.421 20.712 103.781 20.456C104.141 20.2 104.585 20.064 105.113 20.048C105.233 20.04 105.329 20.068 105.401 20.132C105.473 20.188 105.513 20.288 105.521 20.432C105.529 20.568 105.497 20.676 105.425 20.756C105.353 20.836 105.241 20.884 105.089 20.9L104.897 20.924C104.353 20.972 103.933 21.148 103.637 21.452C103.349 21.748 103.205 22.156 103.205 22.676V25.58C103.205 25.74 103.161 25.864 103.073 25.952C102.993 26.04 102.873 26.084 102.713 26.084ZM109.031 28.268C108.607 28.268 108.191 28.216 107.783 28.112C107.383 28.016 107.019 27.86 106.691 27.644C106.595 27.588 106.531 27.52 106.499 27.44C106.475 27.36 106.471 27.28 106.487 27.2C106.503 27.128 106.539 27.06 106.595 26.996C106.651 26.94 106.715 26.904 106.787 26.888C106.867 26.872 106.947 26.884 107.027 26.924C107.379 27.14 107.715 27.288 108.035 27.368C108.355 27.448 108.671 27.488 108.983 27.488C109.551 27.488 109.979 27.336 110.267 27.032C110.563 26.728 110.711 26.288 110.711 25.712V24.356H110.831C110.711 24.82 110.455 25.188 110.063 25.46C109.679 25.732 109.227 25.868 108.707 25.868C108.171 25.868 107.707 25.748 107.315 25.508C106.923 25.26 106.619 24.916 106.403 24.476C106.195 24.036 106.091 23.528 106.091 22.952C106.091 22.52 106.151 22.128 106.271 21.776C106.391 21.416 106.563 21.112 106.787 20.864C107.019 20.608 107.295 20.412 107.615 20.276C107.943 20.132 108.307 20.06 108.707 20.06C109.235 20.06 109.691 20.196 110.075 20.468C110.459 20.732 110.707 21.092 110.819 21.548L110.699 21.692V20.576C110.699 20.416 110.739 20.296 110.819 20.216C110.907 20.128 111.027 20.084 111.179 20.084C111.339 20.084 111.459 20.128 111.539 20.216C111.619 20.296 111.659 20.416 111.659 20.576V25.58C111.659 26.468 111.435 27.136 110.987 27.584C110.547 28.04 109.895 28.268 109.031 28.268ZM108.887 25.076C109.263 25.076 109.587 24.992 109.859 24.824C110.131 24.648 110.339 24.4 110.483 24.08C110.635 23.76 110.711 23.384 110.711 22.952C110.711 22.304 110.547 21.792 110.219 21.416C109.891 21.032 109.447 20.84 108.887 20.84C108.519 20.84 108.199 20.928 107.927 21.104C107.655 21.272 107.443 21.516 107.291 21.836C107.147 22.148 107.075 22.52 107.075 22.952C107.075 23.6 107.239 24.116 107.567 24.5C107.895 24.884 108.335 25.076 108.887 25.076ZM116.11 26.108C115.494 26.108 114.962 25.988 114.514 25.748C114.074 25.5 113.73 25.152 113.482 24.704C113.242 24.256 113.122 23.72 113.122 23.096C113.122 22.488 113.242 21.96 113.482 21.512C113.722 21.056 114.05 20.7 114.466 20.444C114.89 20.188 115.378 20.06 115.93 20.06C116.322 20.06 116.674 20.128 116.986 20.264C117.298 20.392 117.562 20.58 117.778 20.828C118.002 21.076 118.17 21.376 118.282 21.728C118.402 22.08 118.462 22.476 118.462 22.916C118.462 23.044 118.426 23.14 118.354 23.204C118.282 23.26 118.178 23.288 118.042 23.288H113.866V22.652H117.814L117.622 22.808C117.622 22.376 117.558 22.012 117.43 21.716C117.302 21.412 117.114 21.18 116.866 21.02C116.626 20.86 116.322 20.78 115.954 20.78C115.546 20.78 115.198 20.876 114.91 21.068C114.63 21.252 114.418 21.512 114.274 21.848C114.13 22.176 114.058 22.56 114.058 23V23.072C114.058 23.808 114.234 24.368 114.586 24.752C114.946 25.136 115.454 25.328 116.11 25.328C116.382 25.328 116.65 25.292 116.914 25.22C117.186 25.148 117.45 25.028 117.706 24.86C117.818 24.788 117.918 24.756 118.006 24.764C118.102 24.764 118.178 24.792 118.234 24.848C118.29 24.896 118.326 24.96 118.342 25.04C118.366 25.112 118.358 25.192 118.318 25.28C118.286 25.368 118.218 25.444 118.114 25.508C117.85 25.7 117.538 25.848 117.178 25.952C116.818 26.056 116.462 26.108 116.11 26.108ZM120.361 26.084C120.201 26.084 120.077 26.04 119.989 25.952C119.909 25.864 119.869 25.74 119.869 25.58V20.576C119.869 20.416 119.909 20.296 119.989 20.216C120.069 20.128 120.185 20.084 120.337 20.084C120.489 20.084 120.605 20.128 120.685 20.216C120.773 20.296 120.817 20.416 120.817 20.576V21.548H120.697C120.825 21.076 121.069 20.712 121.429 20.456C121.789 20.2 122.233 20.064 122.761 20.048C122.881 20.04 122.977 20.068 123.049 20.132C123.121 20.188 123.161 20.288 123.169 20.432C123.177 20.568 123.145 20.676 123.073 20.756C123.001 20.836 122.889 20.884 122.737 20.9L122.545 20.924C122.001 20.972 121.581 21.148 121.285 21.452C120.997 21.748 120.853 22.156 120.853 22.676V25.58C120.853 25.74 120.809 25.864 120.721 25.952C120.641 26.04 120.521 26.084 120.361 26.084Z"
                fill="#767E94"
              />
              <path
                d="M66.592 49.144C65.3653 49.144 64.3307 48.9147 63.488 48.456C62.6453 47.9867 62.0053 47.32 61.568 46.456C61.1413 45.592 60.928 44.5627 60.928 43.368C60.928 42.472 61.0507 41.672 61.296 40.968C61.552 40.2533 61.9147 39.6453 62.384 39.144C62.864 38.632 63.4453 38.2427 64.128 37.976C64.8213 37.7093 65.6053 37.576 66.48 37.576C67.12 37.576 67.7493 37.6613 68.368 37.832C68.9867 37.992 69.552 38.2587 70.064 38.632C70.2133 38.7387 70.3093 38.8613 70.352 39C70.3947 39.1387 70.3947 39.2827 70.352 39.432C70.32 39.5707 70.2507 39.6933 70.144 39.8C70.048 39.9067 69.9253 39.9707 69.776 39.992C69.6373 40.0133 69.4827 39.9707 69.312 39.864C68.896 39.576 68.4587 39.368 68 39.24C67.5413 39.1013 67.0347 39.032 66.48 39.032C65.648 39.032 64.944 39.2027 64.368 39.544C63.8027 39.8853 63.376 40.3813 63.088 41.032C62.8 41.672 62.656 42.4507 62.656 43.368C62.656 44.7867 62.992 45.864 63.664 46.6C64.336 47.336 65.3333 47.704 66.656 47.704C67.136 47.704 67.6053 47.6613 68.064 47.576C68.5333 47.48 68.9813 47.3467 69.408 47.176L69.072 48.008V44.28H67.008C66.7947 44.28 66.624 44.2267 66.496 44.12C66.3787 44.0027 66.32 43.8427 66.32 43.64C66.32 43.4373 66.3787 43.288 66.496 43.192C66.624 43.0853 66.7947 43.032 67.008 43.032H69.776C70 43.032 70.1707 43.0907 70.288 43.208C70.4053 43.3253 70.464 43.496 70.464 43.72V47.752C70.464 47.944 70.4267 48.1093 70.352 48.248C70.288 48.376 70.176 48.472 70.016 48.536C69.5573 48.7173 69.0187 48.8667 68.4 48.984C67.7813 49.0907 67.1787 49.144 66.592 49.144ZM76.2311 49.144C75.4418 49.144 74.7591 48.9787 74.1831 48.648C73.6178 48.3173 73.1751 47.848 72.8551 47.24C72.5351 46.632 72.3751 45.9173 72.3751 45.096C72.3751 44.4667 72.4658 43.9067 72.6471 43.416C72.8285 42.9253 73.0845 42.504 73.4151 42.152C73.7565 41.7893 74.1618 41.5173 74.6311 41.336C75.1111 41.144 75.6445 41.048 76.2311 41.048C77.0098 41.048 77.6818 41.2133 78.2471 41.544C78.8231 41.8747 79.2711 42.344 79.5911 42.952C79.9111 43.5493 80.0711 44.264 80.0711 45.096C80.0711 45.7147 79.9805 46.2747 79.7991 46.776C79.6178 47.2773 79.3565 47.704 79.0151 48.056C78.6845 48.408 78.2791 48.68 77.7991 48.872C77.3298 49.0533 76.8071 49.144 76.2311 49.144ZM76.2311 47.896C76.6685 47.896 77.0525 47.7893 77.3831 47.576C77.7138 47.3627 77.9698 47.048 78.1511 46.632C78.3431 46.216 78.4391 45.704 78.4391 45.096C78.4391 44.1787 78.2365 43.4853 77.8311 43.016C77.4258 42.5467 76.8925 42.312 76.2311 42.312C75.7831 42.312 75.3938 42.4187 75.0631 42.632C74.7325 42.8347 74.4711 43.144 74.2791 43.56C74.0978 43.976 74.0071 44.488 74.0071 45.096C74.0071 46.0027 74.2098 46.696 74.6151 47.176C75.0205 47.656 75.5591 47.896 76.2311 47.896ZM85.278 49.144C84.4887 49.144 83.806 48.9787 83.23 48.648C82.6647 48.3173 82.222 47.848 81.902 47.24C81.582 46.632 81.422 45.9173 81.422 45.096C81.422 44.4667 81.5127 43.9067 81.694 43.416C81.8753 42.9253 82.1313 42.504 82.462 42.152C82.8033 41.7893 83.2087 41.5173 83.678 41.336C84.158 41.144 84.6913 41.048 85.278 41.048C86.0567 41.048 86.7287 41.2133 87.294 41.544C87.87 41.8747 88.318 42.344 88.638 42.952C88.958 43.5493 89.118 44.264 89.118 45.096C89.118 45.7147 89.0273 46.2747 88.846 46.776C88.6647 47.2773 88.4033 47.704 88.062 48.056C87.7313 48.408 87.326 48.68 86.846 48.872C86.3767 49.0533 85.854 49.144 85.278 49.144ZM85.278 47.896C85.7153 47.896 86.0993 47.7893 86.43 47.576C86.7607 47.3627 87.0167 47.048 87.198 46.632C87.39 46.216 87.486 45.704 87.486 45.096C87.486 44.1787 87.2833 43.4853 86.878 43.016C86.4727 42.5467 85.9393 42.312 85.278 42.312C84.83 42.312 84.4407 42.4187 84.11 42.632C83.7793 42.8347 83.518 43.144 83.326 43.56C83.1447 43.976 83.054 44.488 83.054 45.096C83.054 46.0027 83.2567 46.696 83.662 47.176C84.0673 47.656 84.606 47.896 85.278 47.896ZM94.4689 52.024C93.8929 52.024 93.3329 51.9653 92.7889 51.848C92.2555 51.7307 91.7702 51.5387 91.3329 51.272C91.1729 51.1867 91.0662 51.08 91.0129 50.952C90.9595 50.8347 90.9435 50.712 90.9649 50.584C90.9969 50.456 91.0555 50.344 91.1409 50.248C91.2262 50.152 91.3275 50.088 91.4449 50.056C91.5729 50.024 91.7062 50.0453 91.8449 50.12C92.3142 50.376 92.7569 50.5467 93.1729 50.632C93.5995 50.728 93.9942 50.776 94.3569 50.776C95.1035 50.776 95.6635 50.584 96.0369 50.2C96.4102 49.8267 96.5969 49.272 96.5969 48.536V46.904H96.7409C96.5809 47.4907 96.2449 47.9547 95.7329 48.296C95.2209 48.6373 94.6289 48.808 93.9569 48.808C93.2529 48.808 92.6395 48.648 92.1169 48.328C91.5942 47.9973 91.1889 47.544 90.9009 46.968C90.6129 46.3813 90.4689 45.6987 90.4689 44.92C90.4689 44.3333 90.5489 43.8053 90.7089 43.336C90.8795 42.8667 91.1142 42.4613 91.4129 42.12C91.7222 41.7787 92.0902 41.5173 92.5169 41.336C92.9542 41.144 93.4342 41.048 93.9569 41.048C94.6395 41.048 95.2315 41.2187 95.7329 41.56C96.2449 41.9013 96.5755 42.3653 96.7249 42.952L96.5649 43.224V41.896C96.5649 41.6293 96.6342 41.4267 96.7729 41.288C96.9222 41.1493 97.1195 41.08 97.3649 41.08C97.6209 41.08 97.8182 41.1493 97.9569 41.288C98.0955 41.4267 98.1649 41.6293 98.1649 41.896V48.344C98.1649 49.56 97.8502 50.4773 97.2209 51.096C96.5915 51.7147 95.6742 52.024 94.4689 52.024ZM94.3409 47.544C94.8102 47.544 95.2102 47.4373 95.5409 47.224C95.8715 47.0107 96.1275 46.7067 96.3089 46.312C96.4902 45.9173 96.5809 45.4533 96.5809 44.92C96.5809 44.12 96.3782 43.4853 95.9729 43.016C95.5782 42.5467 95.0342 42.312 94.3409 42.312C93.8822 42.312 93.4875 42.4187 93.1569 42.632C92.8262 42.8453 92.5649 43.1493 92.3729 43.544C92.1915 43.928 92.1009 44.3867 92.1009 44.92C92.1009 45.7307 92.3035 46.3707 92.7089 46.84C93.1142 47.3093 93.6582 47.544 94.3409 47.544ZM102.945 49.144C102.113 49.144 101.484 48.904 101.057 48.424C100.641 47.9333 100.433 47.2293 100.433 46.312V38.424C100.433 38.1573 100.502 37.9547 100.641 37.816C100.78 37.6773 100.977 37.608 101.233 37.608C101.489 37.608 101.686 37.6773 101.825 37.816C101.974 37.9547 102.049 38.1573 102.049 38.424V46.216C102.049 46.7493 102.156 47.1493 102.369 47.416C102.593 47.672 102.913 47.8 103.329 47.8C103.425 47.8 103.51 47.8 103.585 47.8C103.66 47.7893 103.734 47.7787 103.809 47.768C103.937 47.7573 104.028 47.7947 104.081 47.88C104.134 47.9547 104.161 48.1147 104.161 48.36C104.161 48.584 104.113 48.76 104.017 48.888C103.921 49.0053 103.766 49.08 103.553 49.112C103.457 49.1227 103.356 49.128 103.249 49.128C103.142 49.1387 103.041 49.144 102.945 49.144ZM108.909 49.144C108.056 49.144 107.32 48.984 106.701 48.664C106.093 48.3333 105.619 47.8693 105.277 47.272C104.947 46.664 104.781 45.944 104.781 45.112C104.781 44.3013 104.947 43.592 105.277 42.984C105.608 42.376 106.061 41.9013 106.637 41.56C107.213 41.2187 107.869 41.048 108.605 41.048C109.149 41.048 109.635 41.1387 110.061 41.32C110.488 41.4907 110.851 41.7467 111.149 42.088C111.459 42.4187 111.688 42.824 111.837 43.304C111.997 43.784 112.077 44.3227 112.077 44.92C112.077 45.1013 112.024 45.24 111.917 45.336C111.811 45.4213 111.651 45.464 111.437 45.464H106.061V44.472H110.989L110.717 44.696C110.717 44.1627 110.637 43.7093 110.477 43.336C110.328 42.9627 110.099 42.68 109.789 42.488C109.491 42.2853 109.117 42.184 108.669 42.184C108.168 42.184 107.741 42.3013 107.389 42.536C107.048 42.7707 106.787 43.096 106.605 43.512C106.424 43.928 106.333 44.4133 106.333 44.968V45.064C106.333 46.0027 106.552 46.712 106.989 47.192C107.437 47.6613 108.083 47.896 108.925 47.896C109.245 47.896 109.581 47.8533 109.933 47.768C110.296 47.6827 110.637 47.5387 110.957 47.336C111.139 47.2293 111.299 47.1813 111.437 47.192C111.587 47.2027 111.704 47.2507 111.789 47.336C111.885 47.4213 111.944 47.528 111.965 47.656C111.987 47.784 111.965 47.9173 111.901 48.056C111.837 48.184 111.725 48.3013 111.565 48.408C111.203 48.6533 110.781 48.84 110.301 48.968C109.821 49.0853 109.357 49.144 108.909 49.144ZM119.066 49.112C118.799 49.112 118.591 49.0373 118.442 48.888C118.303 48.7387 118.234 48.5307 118.234 48.264V38.568C118.234 38.2907 118.309 38.0827 118.458 37.944C118.607 37.7947 118.815 37.72 119.082 37.72H122.906C124.122 37.72 125.061 38.024 125.722 38.632C126.383 39.2293 126.714 40.072 126.714 41.16C126.714 42.2587 126.383 43.112 125.722 43.72C125.061 44.3173 124.122 44.616 122.906 44.616H119.898V48.264C119.898 48.5307 119.829 48.7387 119.69 48.888C119.551 49.0373 119.343 49.112 119.066 49.112ZM119.898 43.288H122.666C123.466 43.288 124.069 43.112 124.474 42.76C124.89 42.3973 125.098 41.864 125.098 41.16C125.098 40.4667 124.89 39.944 124.474 39.592C124.069 39.2293 123.466 39.048 122.666 39.048H119.898V43.288ZM130.836 49.144C130.004 49.144 129.374 48.904 128.948 48.424C128.532 47.9333 128.324 47.2293 128.324 46.312V38.424C128.324 38.1573 128.393 37.9547 128.532 37.816C128.67 37.6773 128.868 37.608 129.124 37.608C129.38 37.608 129.577 37.6773 129.716 37.816C129.865 37.9547 129.94 38.1573 129.94 38.424V46.216C129.94 46.7493 130.046 47.1493 130.26 47.416C130.484 47.672 130.804 47.8 131.22 47.8C131.316 47.8 131.401 47.8 131.476 47.8C131.55 47.7893 131.625 47.7787 131.7 47.768C131.828 47.7573 131.918 47.7947 131.972 47.88C132.025 47.9547 132.052 48.1147 132.052 48.36C132.052 48.584 132.004 48.76 131.908 48.888C131.812 49.0053 131.657 49.08 131.444 49.112C131.348 49.1227 131.246 49.128 131.14 49.128C131.033 49.1387 130.932 49.144 130.836 49.144ZM135.71 49.144C135.166 49.144 134.675 49.0373 134.238 48.824C133.811 48.6107 133.475 48.3227 133.23 47.96C132.985 47.5973 132.862 47.1867 132.862 46.728C132.862 46.152 133.006 45.6987 133.294 45.368C133.593 45.0267 134.078 44.7867 134.75 44.648C135.433 44.4987 136.35 44.424 137.502 44.424H138.254V45.416H137.518C136.75 45.416 136.142 45.4533 135.694 45.528C135.246 45.6027 134.926 45.7307 134.734 45.912C134.553 46.0827 134.462 46.3227 134.462 46.632C134.462 47.0373 134.601 47.368 134.878 47.624C135.155 47.8693 135.539 47.992 136.03 47.992C136.425 47.992 136.771 47.9013 137.07 47.72C137.369 47.528 137.603 47.272 137.774 46.952C137.955 46.632 138.046 46.264 138.046 45.848V44.008C138.046 43.4 137.918 42.9627 137.662 42.696C137.406 42.4293 136.985 42.296 136.398 42.296C136.057 42.296 135.699 42.3387 135.326 42.424C134.963 42.5093 134.585 42.6533 134.19 42.856C134.009 42.9413 133.854 42.968 133.726 42.936C133.598 42.904 133.497 42.8347 133.422 42.728C133.347 42.6107 133.305 42.488 133.294 42.36C133.294 42.2213 133.326 42.088 133.39 41.96C133.465 41.832 133.587 41.736 133.758 41.672C134.227 41.448 134.691 41.288 135.15 41.192C135.609 41.096 136.041 41.048 136.446 41.048C137.161 41.048 137.747 41.16 138.206 41.384C138.675 41.608 139.022 41.9493 139.246 42.408C139.47 42.8667 139.582 43.4587 139.582 44.184V48.296C139.582 48.552 139.518 48.7547 139.39 48.904C139.262 49.0427 139.075 49.112 138.83 49.112C138.595 49.112 138.409 49.0427 138.27 48.904C138.131 48.7547 138.062 48.552 138.062 48.296V47.256H138.206C138.121 47.6507 137.961 47.992 137.726 48.28C137.502 48.5573 137.219 48.7707 136.878 48.92C136.537 49.0693 136.147 49.144 135.71 49.144ZM143.57 51.992C143.378 51.992 143.218 51.9387 143.09 51.832C142.972 51.736 142.903 51.6027 142.882 51.432C142.871 51.272 142.903 51.096 142.978 50.904L144.066 48.456V49.144L141.074 42.184C140.999 41.992 140.972 41.8107 140.994 41.64C141.015 41.4693 141.095 41.336 141.234 41.24C141.372 41.1333 141.559 41.08 141.794 41.08C141.996 41.08 142.156 41.128 142.274 41.224C142.391 41.32 142.498 41.4853 142.594 41.72L145.01 47.688H144.562L147.01 41.72C147.106 41.4747 147.218 41.3093 147.346 41.224C147.474 41.128 147.65 41.08 147.874 41.08C148.066 41.08 148.215 41.1333 148.322 41.24C148.439 41.336 148.508 41.4693 148.53 41.64C148.562 41.8 148.535 41.976 148.45 42.168L144.45 51.368C144.343 51.6133 144.22 51.7787 144.082 51.864C143.954 51.9493 143.783 51.992 143.57 51.992Z"
                fill="#191F33"
              />
              <defs>
                <clipPath id="clip0_420_5420">
                  <rect
                    width="32"
                    height="30.2703"
                    fill="white"
                    transform="translate(16 20)"
                  />
                </clipPath>
              </defs>
            </svg>